<?xml version="1.0" encoding="UTF-8" standalone="no"?>
<!DOCTYPE svg PUBLIC "-//W3C//DTD SVG 1.1//EN" "http://www.w3.org/Graphics/SVG/1.1/DTD/svg11.dtd">
<svg width="167" height="68" viewBox="0 0 167 68" version="1.1" xmlns="http://www.w3.org/2000/svg" xmlns:xlink="http://www.w3.org/1999/xlink">
<path fill="#0000dc" d="M-0.06,3l0,26.6l4.14,0l0,-26.6zm4.29,0l2.59,26.6l1.4,0l-2.58,-26.6zm6.73,0l-2.58,26.6l1.4,0l2.59,-26.6zm1.56,0l0,26.6l4.18,0l0,-26.6zm15.69,0l0,20.48c0,3.57,3.23,6.35,6.69,6.35c3.46,0,6.69,-2.78,6.69,-6.35l0,-20.48l-4.18,0l0,20.33c0,1.44,-1.29,2.47,-2.51,2.47c-1.22,0,-2.51,-1.03,-2.51,-2.47l0,-20.33zm26.26,0l0,26.6l4.18,0l0,-26.6zm4.33,0l3.95,26.6l1.45,0l-3.95,-26.6zm5.55,0l0,26.6l4.18,0l0,-26.6zm18.05,25.12l0,1.48l11.36,0l0,-1.48l-3.61,0l0,-23.64l3.61,0l0,-1.48l-11.36,0l0,1.48l3.57,0l0,23.64z"></path><path fill="#0000dc" d="M6.21,41.5l-5.74,26.6l2.13,0l1.79,-8.4l7.75,0l1.82,8.4l2.13,0l-5.66,-26.6l-2.05,0l3.42,16.3l-7.07,0l3.49,-16.3zm22.72,0l0,26.6l2.06,0l0,-11.25l3.45,0l6.31,11.25l2.36,0l-6.5,-11.48c3.12,-0.26,5.59,-2.88,5.59,-6.11l0,-2.66c0,-3.46,-2.89,-6.35,-6.35,-6.35zm6.73,13.41l-4.67,0l0,-11.51l4.67,0c2.43,0,4.52,1.98,4.52,4.48l0,2.4c0,2.73,-1.97,4.63,-4.52,4.63zm24.81,-11.51l0,24.7l2.06,0l0,-24.7l7.1,0l0,-1.9l-16.26,0l0,1.9zm27.63,24.93c3.65,0,6.57,-2.59,6.57,-6.35l0,-1.63c0,-4.33,-3.64,-5.82,-6.15,-6.39c-2.32,-0.53,-4.94,-1.4,-4.94,-4.52l0,-1.78c0,-2.47,2.13,-4.41,4.52,-4.41c2.36,0,4.52,1.94,4.52,4.41l0,0.95l2.05,0l0,-0.99c0,-3.65,-2.92,-6.35,-6.57,-6.35c-3.65,0,-6.57,2.7,-6.57,6.35l0,1.82c0,4.45,3.76,5.85,6.08,6.39c2.43,0.53,5.01,1.4,5.01,4.56l0,1.55c0,2.47,-2.13,4.41,-4.48,4.41c-2.4,0,-4.56,-1.94,-4.56,-4.41l0,-0.87l-2.05,0l0,0.91c0,3.76,2.92,6.35,6.57,6.35z"></path><path fill="#0000dc" d="M111.23,3.01l0,10.68l3.55,0c3.63,0,5.67,-1.92,5.67,-5.34c0,-3.42,-2.04,-5.34,-5.67,-5.34zm2.19,1.89l1.33,0c2.3,0,3.42,1.14,3.42,3.45c0,2.31,-1.12,3.45,-3.42,3.45l-1.33,0zm10.71,-0.09l0,-1.8l-2.1,0l0,1.8zm0,8.88l0,-7.62l-2.1,0l0,7.62zm4.7,-7.83c-1.92,0,-3.15,1.5,-3.15,3.87c0,2.37,1.21,3.87,3.12,3.87c0.91,0,1.56,-0.35,2.13,-1.14l0.03,0l0,0.67c0,1.49,-0.59,1.97,-1.53,1.97c-0.8,0,-1.28,-0.35,-1.32,-0.93l-2.1,0c0.12,1.5,1.27,2.43,3.37,2.43c2.19,0,3.62,-1.08,3.62,-3.39l0,-7.14l-1.98,0l0,1.02l-0.03,0c-0.59,-0.87,-1.24,-1.23,-2.16,-1.23zm0.57,1.72c0.98,0,1.62,0.86,1.62,2.15c0,1.29,-0.64,2.14,-1.62,2.14c-0.93,0,-1.53,-0.82,-1.53,-2.14c0,-1.32,0.6,-2.15,1.53,-2.15zm7.74,-2.77l0,-1.8l-2.1,0l0,1.8zm0,8.88l0,-7.62l-2.1,0l0,7.62zm5.45,-1.58c-0.71,0,-0.99,-0.33,-0.99,-1.17l0,-3.31l1.46,0l0,-1.56l-1.46,0l0,-1.98l-2.1,0l0,1.98l-1.22,0l0,1.56l1.22,0l0,3.69c0,1.77,0.77,2.47,2.53,2.47c0.35,0,0.82,-0.06,1.1,-0.15l0,-1.6c-0.13,0.04,-0.34,0.07,-0.54,0.07zm4.92,-6.28c-2.17,0,-3.22,1.17,-3.29,2.62l2.03,0c0.03,-0.72,0.48,-1.15,1.26,-1.15c0.74,0,1.25,0.39,1.25,1.35l0,0.27c-0.48,0.03,-1.34,0.12,-1.91,0.21c-2.2,0.34,-2.95,1.18,-2.95,2.43c0,1.32,0.98,2.31,2.6,2.31c1.04,0,1.9,-0.39,2.47,-1.2l0.03,0c0,0.37,0.03,0.7,0.1,1.02l1.9,0c-0.14,-0.51,-0.22,-1.13,-0.22,-2.09l0,-2.76c0,-1.99,-1.11,-3.01,-3.27,-3.01zm1.25,4.65c0,0.69,-0.07,1.09,-0.44,1.45c-0.3,0.3,-0.76,0.44,-1.19,0.44c-0.74,0,-1.13,-0.39,-1.13,-0.96c0,-0.62,0.36,-0.9,1.23,-1.05c0.45,-0.08,1.08,-0.14,1.53,-0.17zm6.08,3.21l0,-10.68l-2.1,0l0,10.68zm4.13,-8.88l0,-1.8l-2.09,0l0,1.8zm0,8.88l0,-7.62l-2.09,0l0,7.62zm5.03,-7.86c-2.18,0,-3.23,1.17,-3.3,2.62l2.04,0c0.03,-0.72,0.48,-1.15,1.26,-1.15c0.73,0,1.24,0.39,1.24,1.35l0,0.27c-0.48,0.03,-1.33,0.12,-1.9,0.21c-2.21,0.34,-2.96,1.18,-2.96,2.43c0,1.32,0.98,2.31,2.6,2.31c1.05,0,1.9,-0.39,2.47,-1.2l0.03,0c0,0.37,0.03,0.7,0.11,1.02l1.89,0c-0.14,-0.51,-0.21,-1.13,-0.21,-2.09l0,-2.76c0,-1.99,-1.11,-3.01,-3.27,-3.01zm1.24,4.65c0,0.69,-0.07,1.09,-0.43,1.45c-0.3,0.3,-0.77,0.44,-1.2,0.44c-0.74,0,-1.13,-0.39,-1.13,-0.96c0,-0.62,0.36,-0.9,1.23,-1.05c0.45,-0.08,1.08,-0.14,1.53,-0.17z"></path><path fill="#0000dc" d="M112.81,30.46l0,-9.45l-1.39,0l0,10.68l6.85,0l0,-1.23zm9.61,0.42c-1.25,0,-2.2,-0.86,-2.26,-2.73l5.7,0c0,-0.66,-0.05,-1.2,-0.16,-1.64c-0.39,-1.63,-1.6,-2.65,-3.32,-2.65c-2.22,0,-3.55,1.66,-3.55,3.91c0,2.49,1.34,4.13,3.59,4.13c1.95,0,3.11,-1.16,3.36,-2.49l-1.35,0c-0.18,0.85,-0.9,1.47,-2.01,1.47zm-0.04,-6c1.17,0,2.03,0.78,2.17,2.26l-4.38,0c0.13,-1.45,0.99,-2.26,2.21,-2.26zm8.35,2.85l2.59,-3.66l-1.56,0l-1.82,2.73l-0.03,0l-1.82,-2.73l-1.56,0l2.6,3.66l-2.84,3.96l1.57,0l2.05,-3.05l0.03,0l2.03,3.05l1.59,0zm5.28,-5.24l0,-1.48l-1.32,0l0,1.48zm0,9.2l0,-7.62l-1.32,0l0,7.62zm5.37,-7.83c-2.21,0,-3.59,1.54,-3.59,4.02c0,2.47,1.38,4.02,3.59,4.02c1.86,0,3.1,-1.28,3.25,-3.02l-1.38,0c-0.09,1.1,-0.84,1.94,-1.89,1.94c-1.35,0,-2.17,-1.11,-2.17,-2.94c0,-1.82,0.82,-2.94,2.17,-2.94c1.05,0,1.8,0.75,1.89,1.83l1.38,0c-0.15,-1.71,-1.42,-2.91,-3.25,-2.91zm8.13,0c-2.24,0,-3.62,1.53,-3.62,4.02c0,2.49,1.38,4.02,3.62,4.02c2.23,0,3.63,-1.53,3.63,-4.02c0,-2.49,-1.4,-4.02,-3.63,-4.02zm0,1.08c1.39,0,2.25,1.12,2.25,2.94c0,1.81,-0.86,2.94,-2.25,2.94c-1.38,0,-2.24,-1.13,-2.24,-2.94c0,-1.82,0.86,-2.94,2.24,-2.94zm9.03,-1.04c-1.02,0,-1.85,0.47,-2.31,1.17l-0.03,0l0,-1l-1.28,0l0,7.62l1.32,0l0,-4.37c0,-1.53,0.9,-2.34,1.98,-2.34c1.1,0,1.76,0.57,1.76,2.16l0,4.55l1.32,0l0,-4.65c0,-2.09,-1.02,-3.14,-2.76,-3.14z">
</path>
</svg>